# xmcd
#
# Track frame offsets:
#	150
#	14011
#	29916
#	42507
#	57004
#	72387
#	89447
#	104340
#	117427
#	128909
#
# Disc length: 1930 seconds
#
# Revision: 1
# Processed by: cddbd v1.4PL0 Copyright (c) Steve Scherf et al.
# Submitted via: dBpowerAMP V4.0
#
DISCID=9407880a
DTITLE=AARON TIPPIN - SUPER HITS
DYEAR=1900
DGENRE=country
TTITLE0=You've Got To Stand For Something
TTITLE1=I Wonder How Far It Is Over You
TTITLE2=There Ain't Nothin' Wrong With The Radio
TTITLE3=I Wouldn't Have It Any Other Way
TTITLE4=My Blue Angel
TTITLE5=I Got It Honest
TTITLE6=That's As Close As I'll Get To Loving You
TTITLE7=Honky-Tonk Superman
TTITLE8=She Made A Memory Out Of Me
TTITLE9=Without Your Love
EXTD=
EXTT0=
EXTT1=
EXTT2=
EXTT3=
EXTT4=
EXTT5=
EXTT6=
EXTT7=
EXTT8=
EXTT9=
PLAYORDER=
